<?xml version="1.0" encoding="UTF-8" standalone="no"?>
<!DOCTYPE svg PUBLIC "-//W3C//DTD SVG 1.1//EN"
 "http://www.w3.org/Graphics/SVG/1.1/DTD/svg11.dtd">
<!-- Generated by graphviz version 2.40.1 (20161225.0304)
 -->
<!-- Title: G Pages: 1 -->
<svg width="394pt" height="686pt"
 viewBox="0.00 0.00 394.00 686.00" xmlns="http://www.w3.org/2000/svg" xmlns:xlink="http://www.w3.org/1999/xlink">
<g id="graph0" class="graph" transform="scale(1 1) rotate(0) translate(4 682)">
<title>G</title>
<polygon fill="#ffffff" stroke="transparent" points="-4,4 -4,-682 390,-682 390,4 -4,4"/>
<g id="clust1" class="cluster">
<title>cluster_Global</title>
<path fill="none" stroke="#c0c0c0" d="M20,-8C20,-8 366,-8 366,-8 372,-8 378,-14 378,-20 378,-20 378,-658 378,-658 378,-664 372,-670 366,-670 366,-670 20,-670 20,-670 14,-670 8,-664 8,-658 8,-658 8,-20 8,-20 8,-14 14,-8 20,-8"/>
<text text-anchor="middle" x="193" y="-657.2" font-family="Times,serif" font-size="11.00" fill="#c0c0c0">Global</text>
</g>
<g id="clust2" class="cluster">
<title>cluster_\Core</title>
<path fill="none" stroke="#c0c0c0" d="M28,-16C28,-16 358,-16 358,-16 364,-16 370,-22 370,-28 370,-28 370,-514 370,-514 370,-520 364,-526 358,-526 358,-526 28,-526 28,-526 22,-526 16,-520 16,-514 16,-514 16,-28 16,-28 16,-22 22,-16 28,-16"/>
<text text-anchor="middle" x="193" y="-513.2" font-family="Times,serif" font-size="11.00" fill="#c0c0c0">Core</text>
</g>
<g id="clust3" class="cluster">
<title>cluster_\Core\Components</title>
<path fill="none" stroke="#c0c0c0" d="M238,-68C238,-68 350,-68 350,-68 356,-68 362,-74 362,-80 362,-80 362,-486 362,-486 362,-492 356,-498 350,-498 350,-498 238,-498 238,-498 232,-498 226,-492 226,-486 226,-486 226,-80 226,-80 226,-74 232,-68 238,-68"/>
<text text-anchor="middle" x="294" y="-485.2" font-family="Times,serif" font-size="11.00" fill="#c0c0c0">Components</text>
</g>
<g id="clust4" class="cluster">
<title>cluster_\Core\Components\Router</title>
<path fill="none" stroke="#c0c0c0" d="M246,-76C246,-76 342,-76 342,-76 348,-76 354,-82 354,-88 354,-88 354,-190 354,-190 354,-196 348,-202 342,-202 342,-202 246,-202 246,-202 240,-202 234,-196 234,-190 234,-190 234,-88 234,-88 234,-82 240,-76 246,-76"/>
<text text-anchor="middle" x="294" y="-189.2" font-family="Times,serif" font-size="11.00" fill="#c0c0c0">Router</text>
</g>
<g id="clust5" class="cluster">
<title>cluster_\Core\Components\Test</title>
<path fill="none" stroke="#c0c0c0" d="M252.5,-210C252.5,-210 335.5,-210 335.5,-210 341.5,-210 347.5,-216 347.5,-222 347.5,-222 347.5,-324 347.5,-324 347.5,-330 341.5,-336 335.5,-336 335.5,-336 252.5,-336 252.5,-336 246.5,-336 240.5,-330 240.5,-324 240.5,-324 240.5,-222 240.5,-222 240.5,-216 246.5,-210 252.5,-210"/>
<text text-anchor="middle" x="294" y="-323.2" font-family="Times,serif" font-size="11.00" fill="#c0c0c0">Test</text>
</g>
<g id="clust6" class="cluster">
<title>cluster_\Core\Components\Cache</title>
<path fill="none" stroke="#c0c0c0" d="M249,-344C249,-344 339,-344 339,-344 345,-344 351,-350 351,-356 351,-356 351,-458 351,-458 351,-464 345,-470 339,-470 339,-470 249,-470 249,-470 243,-470 237,-464 237,-458 237,-458 237,-356 237,-356 237,-350 243,-344 249,-344"/>
<text text-anchor="middle" x="294" y="-457.2" font-family="Times,serif" font-size="11.00" fill="#c0c0c0">Cache</text>
</g>
<g id="clust7" class="cluster">
<title>cluster_\Core\Interfaces</title>
<path fill="none" stroke="#c0c0c0" d="M36,-24C36,-24 166,-24 166,-24 172,-24 178,-30 178,-36 178,-36 178,-192 178,-192 178,-198 172,-204 166,-204 166,-204 36,-204 36,-204 30,-204 24,-198 24,-192 24,-192 24,-36 24,-36 24,-30 30,-24 36,-24"/>
<text text-anchor="middle" x="101" y="-191.2" font-family="Times,serif" font-size="11.00" fill="#c0c0c0">Interfaces</text>
</g>
<g id="clust8" class="cluster">
<title>cluster_Global\Psr</title>
<path fill="none" stroke="#c0c0c0" d="M33.3057,-534C33.3057,-534 168.6943,-534 168.6943,-534 174.6943,-534 180.6943,-540 180.6943,-546 180.6943,-546 180.6943,-630 180.6943,-630 180.6943,-636 174.6943,-642 168.6943,-642 168.6943,-642 33.3057,-642 33.3057,-642 27.3057,-642 21.3057,-636 21.3057,-630 21.3057,-630 21.3057,-546 21.3057,-546 21.3057,-540 27.3057,-534 33.3057,-534"/>
<text text-anchor="middle" x="101" y="-629.2" font-family="Times,serif" font-size="11.00" fill="#c0c0c0">Psr</text>
</g>
<g id="clust9" class="cluster">
<title>cluster_Global\Psr\SimpleCache</title>
<path fill="none" stroke="#c0c0c0" d="M41.3057,-542C41.3057,-542 160.6943,-542 160.6943,-542 166.6943,-542 172.6943,-548 172.6943,-554 172.6943,-554 172.6943,-602 172.6943,-602 172.6943,-608 166.6943,-614 160.6943,-614 160.6943,-614 41.3057,-614 41.3057,-614 35.3057,-614 29.3057,-608 29.3057,-602 29.3057,-602 29.3057,-554 29.3057,-554 29.3057,-548 35.3057,-542 41.3057,-542"/>
<text text-anchor="middle" x="101" y="-601.2" font-family="Times,serif" font-size="11.00" fill="#c0c0c0">SimpleCache</text>
</g>
<!-- \\Core\\Components\\Router\\Router -->
<g id="node1" class="node">
<title>\\Core\\Components\\Router\\Router</title>
<polygon fill="none" stroke="#000000" points="322.5,-120 265.5,-120 265.5,-84 322.5,-84 322.5,-120"/>
<text text-anchor="middle" x="294" y="-99.2" font-family="Courier,monospace" font-size="11.00" fill="#000000">Router</text>
</g>
<!-- \\Core\\Interfaces\\RouterInterface -->
<g id="node8" class="node">
<title>\\Core\\Interfaces\\RouterInterface</title>
<polygon fill="none" stroke="#000000" points="160,-176 42,-176 42,-140 160,-140 160,-176"/>
<text text-anchor="middle" x="101" y="-155.2" font-family="Courier,monospace" font-size="11.00" fill="#000000">RouterInterface</text>
</g>
<!-- \\Core\\Components\\Router\\Router&#45;&gt;\\Core\\Interfaces\\RouterInterface -->
<g id="edge3" class="edge">
<title>\\Core\\Components\\Router\\Router&#45;&gt;\\Core\\Interfaces\\RouterInterface</title>
<path fill="none" stroke="#000000" stroke-dasharray="1,5" d="M265.1059,-110.3838C240.0424,-117.6561 202.7513,-128.4763 170.0482,-137.9653"/>
<polygon fill="none" stroke="#000000" points="168.6935,-134.7139 160.0649,-140.862 170.6442,-141.4367 168.6935,-134.7139"/>
</g>
<!-- \\Core\\Components\\Router\\RouterFactory -->
<g id="node2" class="node">
<title>\\Core\\Components\\Router\\RouterFactory</title>
<polygon fill="none" stroke="#000000" points="346,-174 242,-174 242,-138 346,-138 346,-174"/>
<text text-anchor="middle" x="294" y="-153.2" font-family="Courier,monospace" font-size="11.00" fill="#000000">RouterFactory</text>
</g>
<!-- \\Core\\FactoryAbstract -->
<g id="node11" class="node">
<title>\\Core\\FactoryAbstract</title>
<polygon fill="none" stroke="#000000" points="160,-254 42,-254 42,-218 160,-218 160,-254"/>
<text text-anchor="start" x="67" y="-239.2" font-family="Courier,monospace" font-size="11.00" fill="#000000">«abstract»</text>
<text text-anchor="start" x="50" y="-227.2" font-family="Courier,monospace" font-size="11.00" fill="#000000">FactoryAbstract</text>
</g>
<!-- \\Core\\Components\\Router\\RouterFactory&#45;&gt;\\Core\\FactoryAbstract -->
<g id="edge5" class="edge">
<title>\\Core\\Components\\Router\\RouterFactory&#45;&gt;\\Core\\FactoryAbstract</title>
<path fill="none" stroke="#000000" d="M256.8679,-174.0928C234.9279,-184.5179 206.4805,-197.579 180.6943,-208 175.3811,-210.1473 169.8329,-212.2914 164.2454,-214.3834"/>
<polygon fill="none" stroke="#000000" points="163.0145,-211.1069 154.8393,-217.8461 165.4328,-217.6759 163.0145,-211.1069"/>
</g>
<!-- \\Core\\Components\\Test\\Test -->
<g id="node3" class="node">
<title>\\Core\\Components\\Test\\Test</title>
<polygon fill="none" stroke="#000000" points="321,-308 267,-308 267,-272 321,-272 321,-308"/>
<text text-anchor="middle" x="294" y="-287.2" font-family="Courier,monospace" font-size="11.00" fill="#000000">Test</text>
</g>
<!-- \\Core\\Components\\Test\\TestFactory -->
<g id="node4" class="node">
<title>\\Core\\Components\\Test\\TestFactory</title>
<polygon fill="none" stroke="#000000" points="339.5,-254 248.5,-254 248.5,-218 339.5,-218 339.5,-254"/>
<text text-anchor="middle" x="294" y="-233.2" font-family="Courier,monospace" font-size="11.00" fill="#000000">TestFactory</text>
</g>
<!-- \\Core\\Components\\Test\\TestFactory&#45;&gt;\\Core\\FactoryAbstract -->
<g id="edge7" class="edge">
<title>\\Core\\Components\\Test\\TestFactory&#45;&gt;\\Core\\FactoryAbstract</title>
<path fill="none" stroke="#000000" d="M248.2617,-236C225.0376,-236 196.3299,-236 170.447,-236"/>
<polygon fill="none" stroke="#000000" points="170.3085,-232.5001 160.3084,-236 170.3084,-239.5001 170.3085,-232.5001"/>
</g>
<!-- \\Core\\Components\\Cache\\CacheFactory -->
<g id="node5" class="node">
<title>\\Core\\Components\\Cache\\CacheFactory</title>
<polygon fill="none" stroke="#000000" points="343,-388 245,-388 245,-352 343,-352 343,-388"/>
<text text-anchor="middle" x="294" y="-367.2" font-family="Courier,monospace" font-size="11.00" fill="#000000">CacheFactory</text>
</g>
<!-- \\Core\\Components\\Cache\\CacheFactory&#45;&gt;\\Core\\FactoryAbstract -->
<g id="edge4" class="edge">
<title>\\Core\\Components\\Cache\\CacheFactory&#45;&gt;\\Core\\FactoryAbstract</title>
<path fill="none" stroke="#000000" d="M248.1104,-351.8571C240.5374,-348.2728 232.9102,-344.2817 226,-340 188.9722,-317.0568 151.169,-283.9887 126.9769,-261.336"/>
<polygon fill="none" stroke="#000000" points="129.2881,-258.7043 119.6189,-254.3733 124.4767,-263.7888 129.2881,-258.7043"/>
</g>
<!-- \\Core\\Components\\Cache\\Cache -->
<g id="node6" class="node">
<title>\\Core\\Components\\Cache\\Cache</title>
<polygon fill="none" stroke="#000000" points="321,-442 267,-442 267,-406 321,-406 321,-442"/>
<text text-anchor="middle" x="294" y="-421.2" font-family="Courier,monospace" font-size="11.00" fill="#000000">Cache</text>
</g>
<!-- CacheInterface -->
<g id="node12" class="node">
<title>CacheInterface</title>
<ellipse fill="none" stroke="#000000" cx="101" cy="-568" rx="63.8893" ry="18"/>
<text text-anchor="middle" x="101" y="-564.3" font-family="Times,serif" font-size="14.00" fill="#c0c0c0">CacheInterface</text>
</g>
<!-- \\Core\\Components\\Cache\\Cache&#45;&gt;CacheInterface -->
<g id="edge6" class="edge">
<title>\\Core\\Components\\Cache\\Cache&#45;&gt;CacheInterface</title>
<path fill="none" stroke="#000000" stroke-dasharray="1,5" d="M277.772,-442.3166C256.9625,-465.019 218.9726,-503.8957 180.6943,-530 170.4051,-537.0169 158.6193,-543.4075 147.3234,-548.8626"/>
<polygon fill="none" stroke="#000000" points="145.5745,-545.8164 137.9937,-553.218 148.5356,-552.1593 145.5745,-545.8164"/>
</g>
<!-- \\Core\\Interfaces\\RunnableInterface -->
<g id="node7" class="node">
<title>\\Core\\Interfaces\\RunnableInterface</title>
<polygon fill="none" stroke="#000000" points="166.5,-122 35.5,-122 35.5,-86 166.5,-86 166.5,-122"/>
<text text-anchor="middle" x="101" y="-101.2" font-family="Courier,monospace" font-size="11.00" fill="#000000">RunnableInterface</text>
</g>
<!-- \\Core\\Interfaces\\ContainerInterface -->
<g id="node9" class="node">
<title>\\Core\\Interfaces\\ContainerInterface</title>
<polygon fill="none" stroke="#000000" points="170,-68 32,-68 32,-32 170,-32 170,-68"/>
<text text-anchor="middle" x="101" y="-47.2" font-family="Courier,monospace" font-size="11.00" fill="#000000">ContainerInterface</text>
</g>
<!-- \\Core\\Application -->
<g id="node10" class="node">
<title>\\Core\\Application</title>
<polygon fill="none" stroke="#000000" points="339.5,-60 248.5,-60 248.5,-24 339.5,-24 339.5,-60"/>
<text text-anchor="middle" x="294" y="-39.2" font-family="Courier,monospace" font-size="11.00" fill="#000000">Application</text>
</g>
<!-- \\Core\\Application&#45;&gt;\\Core\\Interfaces\\RunnableInterface -->
<g id="edge1" class="edge">
<title>\\Core\\Application&#45;&gt;\\Core\\Interfaces\\RunnableInterface</title>
<path fill="none" stroke="#000000" stroke-dasharray="1,5" d="M248.2617,-56.6931C223.9386,-64.5068 193.6006,-74.2527 166.7923,-82.8646"/>
<polygon fill="none" stroke="#000000" points="165.5433,-79.5896 157.093,-85.9805 167.6843,-86.2542 165.5433,-79.5896"/>
</g>
<!-- \\Core\\Application&#45;&gt;\\Core\\Interfaces\\ContainerInterface -->
<g id="edge2" class="edge">
<title>\\Core\\Application&#45;&gt;\\Core\\Interfaces\\ContainerInterface</title>
<path fill="none" stroke="#000000" stroke-dasharray="1,5" d="M248.2617,-43.8959C227.9676,-44.7371 203.4863,-45.7519 180.3616,-46.7104"/>
<polygon fill="none" stroke="#000000" points="180.049,-43.2203 170.2025,-47.1315 180.3389,-50.2143 180.049,-43.2203"/>
</g>
</g>
</svg>
